<!--?xml version="1.0" standalone="no"?-->
              <svg id="sw-js-blob-svg" viewBox="0 0 100 100" xmlns="http://www.w3.org/2000/svg" version="1.1">
                    <defs> 
                        <linearGradient id="sw-gradient" x1="0" x2="1" y1="1" y2="0">
                            <stop id="stop1" stop-color="rgba(248, 117, 55, 1)" offset="0%"></stop>
                            <stop id="stop2" stop-color="rgba(123, 45, 253, 1)" offset="100%"></stop>
                        </linearGradient>
                    </defs>
                <path fill="url(#sw-gradient)" d="M13,-21C17.5,-20,22.1,-17.7,25.7,-14C29.3,-10.3,31.9,-5.1,31.9,0C32,5.2,29.6,10.4,27.3,16.5C25.1,22.5,23,29.4,18.5,30.8C14,32.3,7,28.3,1.4,25.8C-4.1,23.3,-8.2,22.3,-13.7,21.4C-19.2,20.6,-26.1,19.8,-32.1,16.2C-38.1,12.7,-43.3,6.3,-43.8,-0.3C-44.3,-6.9,-40.1,-13.8,-35.1,-19.1C-30,-24.4,-24.2,-28.1,-18.2,-28.1C-12.2,-28.2,-6.1,-24.7,-0.9,-23.1C4.3,-21.5,8.6,-21.9,13,-21Z" width="100%" height="100%" transform="translate(50 50)" stroke-width="0" style="transition: all 0.3s ease 0s;" stroke="url(#sw-gradient)"></path>
              </svg>