<?xml version="1.0" standalone="no"?>
<svg xmlns:xlink="http://www.w3.org/1999/xlink" id="wave" style="transform:rotate(180deg); transition: 0.3s" viewBox="0 0 1440 490" version="1.1" xmlns="http://www.w3.org/2000/svg"><defs><linearGradient id="sw-gradient-0" x1="0" x2="0" y1="1" y2="0"><stop stop-color="rgba(243, 106, 62, 1)" offset="0%"/><stop stop-color="rgba(255, 179, 11, 1)" offset="100%"/></linearGradient></defs><path style="transform:translate(0, 0px); opacity:1" fill="url(#sw-gradient-0)" d="M0,0L48,24.5C96,49,192,98,288,114.3C384,131,480,114,576,114.3C672,114,768,131,864,163.3C960,196,1056,245,1152,228.7C1248,212,1344,131,1440,155.2C1536,180,1632,310,1728,359.3C1824,408,1920,376,2016,343C2112,310,2208,278,2304,285.8C2400,294,2496,343,2592,326.7C2688,310,2784,229,2880,228.7C2976,229,3072,310,3168,318.5C3264,327,3360,261,3456,269.5C3552,278,3648,359,3744,334.8C3840,310,3936,180,4032,122.5C4128,65,4224,82,4320,89.8C4416,98,4512,98,4608,81.7C4704,65,4800,33,4896,24.5C4992,16,5088,33,5184,49C5280,65,5376,82,5472,98C5568,114,5664,131,5760,171.5C5856,212,5952,278,6048,294C6144,310,6240,278,6336,220.5C6432,163,6528,82,6624,81.7C6720,82,6816,163,6864,204.2L6912,245L6912,490L6864,490C6816,490,6720,490,6624,490C6528,490,6432,490,6336,490C6240,490,6144,490,6048,490C5952,490,5856,490,5760,490C5664,490,5568,490,5472,490C5376,490,5280,490,5184,490C5088,490,4992,490,4896,490C4800,490,4704,490,4608,490C4512,490,4416,490,4320,490C4224,490,4128,490,4032,490C3936,490,3840,490,3744,490C3648,490,3552,490,3456,490C3360,490,3264,490,3168,490C3072,490,2976,490,2880,490C2784,490,2688,490,2592,490C2496,490,2400,490,2304,490C2208,490,2112,490,2016,490C1920,490,1824,490,1728,490C1632,490,1536,490,1440,490C1344,490,1248,490,1152,490C1056,490,960,490,864,490C768,490,672,490,576,490C480,490,384,490,288,490C192,490,96,490,48,490L0,490Z"/><defs><linearGradient id="sw-gradient-1" x1="0" x2="0" y1="1" y2="0"><stop stop-color="rgba(255, 179, 11, 1)" offset="0%"/><stop stop-color="rgba(255, 179, 11, 1)" offset="100%"/></linearGradient></defs><path style="transform:translate(0, 50px); opacity:0.9" fill="url(#sw-gradient-1)" d="M0,147L48,171.5C96,196,192,245,288,294C384,343,480,392,576,359.3C672,327,768,212,864,171.5C960,131,1056,163,1152,187.8C1248,212,1344,229,1440,261.3C1536,294,1632,343,1728,326.7C1824,310,1920,229,2016,220.5C2112,212,2208,278,2304,294C2400,310,2496,278,2592,245C2688,212,2784,180,2880,212.3C2976,245,3072,343,3168,318.5C3264,294,3360,147,3456,106.2C3552,65,3648,131,3744,138.8C3840,147,3936,98,4032,130.7C4128,163,4224,278,4320,326.7C4416,376,4512,359,4608,367.5C4704,376,4800,408,4896,400.2C4992,392,5088,343,5184,310.3C5280,278,5376,261,5472,220.5C5568,180,5664,114,5760,98C5856,82,5952,114,6048,122.5C6144,131,6240,114,6336,122.5C6432,131,6528,163,6624,147C6720,131,6816,65,6864,32.7L6912,0L6912,490L6864,490C6816,490,6720,490,6624,490C6528,490,6432,490,6336,490C6240,490,6144,490,6048,490C5952,490,5856,490,5760,490C5664,490,5568,490,5472,490C5376,490,5280,490,5184,490C5088,490,4992,490,4896,490C4800,490,4704,490,4608,490C4512,490,4416,490,4320,490C4224,490,4128,490,4032,490C3936,490,3840,490,3744,490C3648,490,3552,490,3456,490C3360,490,3264,490,3168,490C3072,490,2976,490,2880,490C2784,490,2688,490,2592,490C2496,490,2400,490,2304,490C2208,490,2112,490,2016,490C1920,490,1824,490,1728,490C1632,490,1536,490,1440,490C1344,490,1248,490,1152,490C1056,490,960,490,864,490C768,490,672,490,576,490C480,490,384,490,288,490C192,490,96,490,48,490L0,490Z"/><defs><linearGradient id="sw-gradient-2" x1="0" x2="0" y1="1" y2="0"><stop stop-color="rgba(239.383, 234.204, 232.541, 1)" offset="0%"/><stop stop-color="rgba(255, 175.574, 0, 1)" offset="100%"/></linearGradient></defs><path style="transform:translate(0, 100px); opacity:0.8" fill="url(#sw-gradient-2)" d="M0,392L48,367.5C96,343,192,294,288,261.3C384,229,480,212,576,236.8C672,261,768,327,864,334.8C960,343,1056,294,1152,245C1248,196,1344,147,1440,179.7C1536,212,1632,327,1728,326.7C1824,327,1920,212,2016,204.2C2112,196,2208,294,2304,277.7C2400,261,2496,131,2592,65.3C2688,0,2784,0,2880,32.7C2976,65,3072,131,3168,204.2C3264,278,3360,359,3456,334.8C3552,310,3648,180,3744,171.5C3840,163,3936,278,4032,334.8C4128,392,4224,392,4320,334.8C4416,278,4512,163,4608,171.5C4704,180,4800,310,4896,367.5C4992,425,5088,408,5184,351.2C5280,294,5376,196,5472,179.7C5568,163,5664,229,5760,212.3C5856,196,5952,98,6048,49C6144,0,6240,0,6336,32.7C6432,65,6528,131,6624,138.8C6720,147,6816,98,6864,73.5L6912,49L6912,490L6864,490C6816,490,6720,490,6624,490C6528,490,6432,490,6336,490C6240,490,6144,490,6048,490C5952,490,5856,490,5760,490C5664,490,5568,490,5472,490C5376,490,5280,490,5184,490C5088,490,4992,490,4896,490C4800,490,4704,490,4608,490C4512,490,4416,490,4320,490C4224,490,4128,490,4032,490C3936,490,3840,490,3744,490C3648,490,3552,490,3456,490C3360,490,3264,490,3168,490C3072,490,2976,490,2880,490C2784,490,2688,490,2592,490C2496,490,2400,490,2304,490C2208,490,2112,490,2016,490C1920,490,1824,490,1728,490C1632,490,1536,490,1440,490C1344,490,1248,490,1152,490C1056,490,960,490,864,490C768,490,672,490,576,490C480,490,384,490,288,490C192,490,96,490,48,490L0,490Z"/><defs><linearGradient id="sw-gradient-3" x1="0" x2="0" y1="1" y2="0"><stop stop-color="rgba(248.49, 248.49, 248.49, 1)" offset="0%"/><stop stop-color="rgba(0, 0, 0, 1)" offset="100%"/></linearGradient></defs><path style="transform:translate(0, 150px); opacity:0.7" fill="url(#sw-gradient-3)" d="M0,392L48,351.2C96,310,192,229,288,220.5C384,212,480,278,576,326.7C672,376,768,408,864,400.2C960,392,1056,343,1152,343C1248,343,1344,392,1440,392C1536,392,1632,343,1728,285.8C1824,229,1920,163,2016,138.8C2112,114,2208,131,2304,147C2400,163,2496,180,2592,171.5C2688,163,2784,131,2880,122.5C2976,114,3072,131,3168,122.5C3264,114,3360,82,3456,114.3C3552,147,3648,245,3744,302.2C3840,359,3936,376,4032,359.3C4128,343,4224,294,4320,285.8C4416,278,4512,310,4608,334.8C4704,359,4800,376,4896,334.8C4992,294,5088,196,5184,171.5C5280,147,5376,196,5472,253.2C5568,310,5664,376,5760,375.7C5856,376,5952,310,6048,277.7C6144,245,6240,245,6336,212.3C6432,180,6528,114,6624,81.7C6720,49,6816,49,6864,49L6912,49L6912,490L6864,490C6816,490,6720,490,6624,490C6528,490,6432,490,6336,490C6240,490,6144,490,6048,490C5952,490,5856,490,5760,490C5664,490,5568,490,5472,490C5376,490,5280,490,5184,490C5088,490,4992,490,4896,490C4800,490,4704,490,4608,490C4512,490,4416,490,4320,490C4224,490,4128,490,4032,490C3936,490,3840,490,3744,490C3648,490,3552,490,3456,490C3360,490,3264,490,3168,490C3072,490,2976,490,2880,490C2784,490,2688,490,2592,490C2496,490,2400,490,2304,490C2208,490,2112,490,2016,490C1920,490,1824,490,1728,490C1632,490,1536,490,1440,490C1344,490,1248,490,1152,490C1056,490,960,490,864,490C768,490,672,490,576,490C480,490,384,490,288,490C192,490,96,490,48,490L0,490Z"/></svg>